<?xml version="1.0" encoding="utf-8"?>
<!-- Generator: Adobe Illustrator 16.0.0, SVG Export Plug-In . SVG Version: 6.00 Build 0)  -->
<!DOCTYPE svg PUBLIC "-//W3C//DTD SVG 1.1//EN" "http://www.w3.org/Graphics/SVG/1.1/DTD/svg11.dtd">
<svg version="1.1" id="Layer_1" xmlns="http://www.w3.org/2000/svg" xmlns:xlink="http://www.w3.org/1999/xlink" x="0px" y="0px"
	 width="239.301px" height="77.551px" viewBox="0 0 239.301 77.551" enable-background="new 0 0 239.301 77.551"
	 xml:space="preserve">
<g>
	<path fill-rule="evenodd" clip-rule="evenodd" fill="#63A70A" d="M4.239,0h69.073c2.33,0,4.239,1.908,4.239,4.239v69.075
		c0,2.33-1.909,4.236-4.239,4.236H4.239C1.906,77.551,0,75.645,0,73.314V4.239C0,1.908,1.906,0,4.239,0z"/>
	<g>
		<g>
			<g>
				<path fill="#221F1F" d="M91.668,64.871h-1.753v5.685c0,0.13-0.046,0.243-0.137,0.334c-0.092,0.091-0.203,0.138-0.334,0.138
					c-0.129,0-0.241-0.046-0.332-0.138s-0.138-0.204-0.138-0.334v-5.685h-1.753c-0.129,0-0.241-0.047-0.331-0.139
					c-0.093-0.091-0.139-0.202-0.139-0.333s0.046-0.24,0.139-0.333c0.09-0.091,0.202-0.138,0.331-0.138h4.446
					c0.13,0,0.24,0.047,0.332,0.138c0.093,0.093,0.138,0.203,0.138,0.333S92.093,64.641,92,64.732
					C91.909,64.824,91.798,64.871,91.668,64.871z"/>
				<path fill="#221F1F" d="M94.815,69.631c0.131,0,0.242,0.043,0.328,0.131c0.088,0.086,0.13,0.197,0.13,0.331
					c0,0.129-0.043,0.24-0.132,0.332c-0.457,0.403-1,0.604-1.624,0.604c-0.686,0-1.271-0.243-1.757-0.728
					c-0.484-0.486-0.728-1.071-0.728-1.757c0-0.686,0.243-1.271,0.728-1.756c0.485-0.486,1.071-0.727,1.757-0.727
					c0.682,0,1.267,0.241,1.756,0.727c0.243,0.24,0.426,0.507,0.548,0.802c0.121,0.292,0.181,0.61,0.181,0.954
					c0,0.133-0.044,0.244-0.135,0.33c-0.088,0.087-0.2,0.132-0.33,0.132h-3.515c0.052,0.162,0.124,0.311,0.223,0.445
					c0.097,0.135,0.213,0.25,0.345,0.346c0.131,0.097,0.275,0.171,0.434,0.225c0.158,0.052,0.323,0.08,0.494,0.08
					c0.195,0,0.374-0.03,0.538-0.089c0.162-0.058,0.312-0.148,0.451-0.268C94.596,69.67,94.699,69.633,94.815,69.631z
					 M95.012,68.081c-0.05-0.161-0.124-0.31-0.223-0.443c-0.101-0.136-0.215-0.251-0.347-0.347
					c-0.133-0.096-0.276-0.171-0.436-0.224c-0.158-0.053-0.319-0.08-0.49-0.08c-0.168,0-0.332,0.027-0.491,0.08
					c-0.16,0.052-0.307,0.128-0.44,0.224c-0.133,0.096-0.248,0.211-0.345,0.347c-0.099,0.134-0.171,0.283-0.219,0.443H95.012z"/>
				<path fill="#221F1F" d="M100.492,69.621c0.133,0,0.243,0.044,0.33,0.131c0.088,0.087,0.132,0.198,0.132,0.33
					c0,0.13-0.049,0.246-0.146,0.343c-0.458,0.403-0.999,0.604-1.619,0.604c-0.687,0-1.272-0.243-1.757-0.728
					c-0.484-0.486-0.729-1.071-0.729-1.757c0-0.686,0.244-1.271,0.729-1.756c0.484-0.486,1.07-0.727,1.757-0.727
					c0.624,0,1.162,0.2,1.619,0.603c0.107,0.096,0.161,0.21,0.161,0.352c0,0.132-0.045,0.243-0.132,0.332
					c-0.088,0.087-0.198,0.133-0.331,0.133c-0.112,0-0.213-0.037-0.302-0.107c-0.149-0.128-0.309-0.223-0.474-0.288
					c-0.167-0.065-0.348-0.098-0.542-0.098c-0.218,0-0.42,0.041-0.609,0.122c-0.188,0.082-0.354,0.193-0.496,0.333
					c-0.143,0.139-0.253,0.304-0.334,0.495c-0.083,0.189-0.121,0.391-0.121,0.606c0,0.217,0.038,0.418,0.121,0.608
					c0.081,0.188,0.191,0.355,0.334,0.495c0.143,0.14,0.309,0.25,0.496,0.332c0.189,0.081,0.392,0.123,0.609,0.123
					c0.194,0,0.375-0.033,0.542-0.097c0.165-0.063,0.322-0.158,0.47-0.285C100.282,69.656,100.378,69.625,100.492,69.621z"/>
				<path fill="#221F1F" d="M102.604,66.515c0.393-0.303,0.855-0.455,1.389-0.455c0.31,0,0.605,0.06,0.884,0.183
					c0.279,0.12,0.526,0.284,0.738,0.495c0.214,0.207,0.383,0.453,0.507,0.735c0.124,0.283,0.187,0.583,0.187,0.903v2.187
					c0,0.13-0.047,0.241-0.136,0.33c-0.091,0.09-0.199,0.136-0.325,0.136c-0.131,0-0.241-0.046-0.331-0.136
					c-0.092-0.089-0.136-0.2-0.136-0.33v-2.187c0-0.19-0.037-0.369-0.11-0.537c-0.074-0.17-0.175-0.316-0.3-0.442
					c-0.126-0.125-0.271-0.225-0.441-0.3c-0.17-0.074-0.348-0.11-0.536-0.11c-0.192,0-0.372,0.036-0.541,0.107
					c-0.166,0.073-0.313,0.173-0.44,0.301c-0.127,0.128-0.227,0.274-0.299,0.444c-0.073,0.168-0.108,0.347-0.108,0.537v2.187
					c0,0.13-0.046,0.241-0.137,0.33c-0.09,0.09-0.198,0.136-0.326,0.136c-0.129,0-0.24-0.046-0.329-0.136
					c-0.092-0.089-0.136-0.2-0.136-0.33v-4.037c0-0.128,0.044-0.236,0.136-0.329c0.089-0.09,0.2-0.136,0.329-0.136
					c0.128,0,0.236,0.046,0.326,0.136C102.558,66.289,102.604,66.396,102.604,66.515z"/>
				<path fill="#221F1F" d="M111.973,68.543c0,0.692-0.242,1.28-0.729,1.757c-0.49,0.485-1.076,0.728-1.757,0.728
					c-0.686,0-1.271-0.243-1.756-0.728c-0.485-0.486-0.728-1.071-0.728-1.757c0-0.686,0.242-1.271,0.728-1.756
					c0.484-0.486,1.07-0.727,1.756-0.727c0.681,0,1.267,0.241,1.757,0.727c0.242,0.242,0.425,0.51,0.543,0.803
					C111.909,67.881,111.97,68.199,111.973,68.543z M109.488,66.986c-0.219,0-0.423,0.041-0.61,0.124
					c-0.19,0.083-0.355,0.195-0.493,0.335c-0.139,0.14-0.249,0.305-0.331,0.495c-0.081,0.188-0.122,0.392-0.122,0.603
					c0,0.213,0.041,0.414,0.122,0.604c0.082,0.189,0.192,0.354,0.331,0.494c0.138,0.139,0.303,0.252,0.493,0.334
					c0.188,0.083,0.392,0.125,0.61,0.125c0.216,0,0.419-0.042,0.609-0.125c0.188-0.082,0.354-0.195,0.494-0.337
					c0.139-0.142,0.25-0.307,0.332-0.494c0.082-0.188,0.122-0.389,0.122-0.602c0-0.211-0.04-0.413-0.122-0.601
					s-0.193-0.353-0.332-0.495c-0.141-0.142-0.307-0.255-0.494-0.338C109.907,67.027,109.704,66.986,109.488,66.986z"/>
				<path fill="#221F1F" d="M112.638,70.566v-6.17c0-0.13,0.043-0.241,0.131-0.331s0.198-0.137,0.33-0.137
					c0.134,0,0.243,0.047,0.33,0.137s0.13,0.2,0.13,0.331v5.705h0.214c0.129,0,0.235,0.045,0.326,0.136
					c0.09,0.09,0.136,0.2,0.136,0.329c0,0.127-0.046,0.236-0.136,0.326c-0.091,0.09-0.197,0.136-0.326,0.136h-0.679
					c-0.127,0-0.235-0.046-0.324-0.136C112.682,70.802,112.638,70.693,112.638,70.566z"/>
				<path fill="#221F1F" d="M119.781,68.543c0,0.692-0.242,1.28-0.729,1.757c-0.49,0.485-1.076,0.728-1.757,0.728
					c-0.685,0-1.272-0.243-1.756-0.728c-0.485-0.486-0.728-1.071-0.728-1.757c0-0.686,0.242-1.271,0.728-1.756
					c0.483-0.486,1.071-0.727,1.756-0.727c0.681,0,1.267,0.241,1.757,0.727c0.243,0.242,0.424,0.51,0.543,0.803
					C119.716,67.881,119.779,68.199,119.781,68.543z M117.295,66.986c-0.217,0-0.423,0.041-0.613,0.124
					c-0.188,0.083-0.352,0.195-0.491,0.335c-0.138,0.14-0.249,0.305-0.329,0.495c-0.081,0.188-0.122,0.392-0.122,0.603
					c0,0.213,0.041,0.414,0.122,0.604c0.08,0.189,0.191,0.354,0.329,0.494c0.14,0.139,0.304,0.252,0.491,0.334
					c0.19,0.083,0.396,0.125,0.613,0.125s0.419-0.042,0.607-0.125c0.19-0.082,0.354-0.195,0.496-0.337
					c0.141-0.142,0.251-0.307,0.332-0.494c0.082-0.188,0.123-0.389,0.123-0.602c0-0.211-0.041-0.413-0.123-0.601
					c-0.081-0.188-0.191-0.353-0.332-0.495c-0.142-0.142-0.306-0.255-0.496-0.338C117.714,67.027,117.512,66.986,117.295,66.986z"/>
				<path fill="#221F1F" d="M124.532,70.481c-0.443,0.365-0.963,0.547-1.557,0.547c-0.688,0-1.271-0.243-1.758-0.728
					c-0.485-0.486-0.728-1.071-0.728-1.757c0-0.686,0.242-1.271,0.728-1.756c0.486-0.486,1.07-0.727,1.758-0.727
					c0.68,0,1.266,0.241,1.756,0.727c0.486,0.485,0.728,1.071,0.728,1.756v2.466c0,0.214-0.033,0.415-0.098,0.604
					c-0.066,0.19-0.154,0.364-0.27,0.521c-0.116,0.16-0.253,0.302-0.409,0.429c-0.156,0.128-0.325,0.234-0.508,0.323
					c-0.182,0.085-0.371,0.155-0.57,0.201c-0.198,0.047-0.396,0.072-0.595,0.072c-0.237,0-0.467-0.032-0.697-0.092
					c-0.228-0.059-0.442-0.15-0.647-0.269c-0.204-0.119-0.391-0.265-0.56-0.438c-0.171-0.176-0.313-0.37-0.433-0.587
					c-0.048-0.069-0.072-0.151-0.072-0.249c0-0.133,0.046-0.242,0.135-0.33s0.197-0.132,0.332-0.132c0.089,0,0.161,0.021,0.22,0.063
					c0.057,0.041,0.137,0.133,0.236,0.274c0.102,0.143,0.19,0.251,0.267,0.325c0.337,0.336,0.743,0.505,1.22,0.505
					c0.479,0,0.883-0.167,1.216-0.498c0.204-0.248,0.307-0.489,0.307-0.723V70.481z M122.975,66.986
					c-0.219,0-0.425,0.041-0.613,0.124s-0.354,0.195-0.492,0.335s-0.249,0.305-0.329,0.495c-0.082,0.188-0.123,0.392-0.123,0.603
					c0,0.213,0.041,0.414,0.123,0.604c0.08,0.189,0.19,0.354,0.329,0.494c0.139,0.139,0.304,0.252,0.492,0.334
					c0.188,0.083,0.395,0.125,0.613,0.125c0.214,0,0.416-0.042,0.606-0.125c0.188-0.082,0.353-0.195,0.495-0.337
					c0.141-0.142,0.253-0.307,0.332-0.494c0.082-0.188,0.123-0.389,0.123-0.602c0-0.211-0.041-0.413-0.123-0.601
					c-0.079-0.188-0.191-0.353-0.332-0.495c-0.143-0.142-0.307-0.255-0.495-0.338C123.391,67.027,123.189,66.986,122.975,66.986z"/>
				<path fill="#221F1F" d="M127.425,65.175c0,0.151-0.055,0.28-0.16,0.388c-0.107,0.105-0.234,0.159-0.386,0.159
					s-0.28-0.053-0.386-0.159c-0.106-0.107-0.161-0.236-0.161-0.388c0-0.148,0.055-0.278,0.161-0.385
					c0.105-0.106,0.234-0.16,0.386-0.16s0.278,0.054,0.386,0.16C127.371,64.897,127.425,65.026,127.425,65.175z M126.417,70.562
					v-4.037c0-0.129,0.046-0.24,0.136-0.33c0.089-0.09,0.198-0.136,0.327-0.136c0.127,0,0.234,0.046,0.325,0.136
					c0.09,0.09,0.138,0.2,0.139,0.33v4.037c-0.001,0.13-0.049,0.241-0.139,0.33c-0.091,0.09-0.198,0.136-0.325,0.136
					c-0.129,0-0.238-0.046-0.327-0.136C126.462,70.802,126.417,70.691,126.417,70.562z"/>
				<path fill="#221F1F" d="M132.34,70.566v-0.088c-0.223,0.177-0.463,0.313-0.725,0.407c-0.26,0.095-0.536,0.143-0.833,0.143
					c-0.688,0-1.273-0.243-1.757-0.728c-0.486-0.486-0.728-1.071-0.728-1.757c0-0.686,0.241-1.271,0.728-1.756
					c0.483-0.486,1.069-0.727,1.757-0.727c0.681,0,1.265,0.241,1.757,0.727c0.484,0.485,0.727,1.071,0.727,1.756v2.023
					c0,0.127-0.045,0.236-0.135,0.326c-0.091,0.09-0.2,0.136-0.327,0.136c-0.13,0-0.239-0.046-0.33-0.136
					C132.385,70.802,132.34,70.693,132.34,70.566z M130.783,66.986c-0.22,0-0.424,0.041-0.613,0.124
					c-0.188,0.083-0.354,0.195-0.492,0.335s-0.249,0.305-0.33,0.495c-0.082,0.188-0.122,0.392-0.122,0.603
					c0,0.213,0.04,0.414,0.122,0.604c0.081,0.189,0.191,0.354,0.33,0.494c0.139,0.139,0.304,0.252,0.492,0.334
					c0.189,0.083,0.394,0.125,0.613,0.125c0.216,0,0.417-0.042,0.607-0.125c0.188-0.082,0.354-0.195,0.494-0.337
					c0.14-0.142,0.253-0.307,0.333-0.494c0.081-0.188,0.123-0.389,0.123-0.602c0-0.211-0.042-0.413-0.123-0.601
					c-0.08-0.188-0.193-0.353-0.333-0.495c-0.141-0.142-0.307-0.255-0.494-0.338C131.2,67.027,130.999,66.986,130.783,66.986z"/>
				<path fill="#221F1F" d="M134.881,68.663c-0.277-0.107-0.474-0.214-0.585-0.329h0.005c-0.227-0.227-0.339-0.495-0.339-0.803
					c0-0.224,0.061-0.427,0.181-0.611c0.119-0.18,0.276-0.334,0.469-0.463c0.191-0.125,0.408-0.226,0.649-0.294
					c0.241-0.07,0.482-0.104,0.726-0.104c0.738,0,1.374,0.296,1.903,0.891c0.063,0.077,0.092,0.17,0.092,0.278
					c0,0.135-0.043,0.245-0.131,0.331c-0.085,0.089-0.197,0.132-0.33,0.132c-0.095,0-0.175-0.025-0.242-0.079
					c-0.066-0.053-0.13-0.111-0.193-0.174c-0.301-0.301-0.666-0.452-1.099-0.452c-0.427,0-0.767,0.13-1.021,0.391
					c-0.047,0.046-0.07,0.112-0.07,0.195c0,0.083,0.037,0.139,0.115,0.17l2.075,0.681c0.291,0.113,0.485,0.223,0.587,0.33h-0.005
					c0.224,0.227,0.337,0.495,0.337,0.803c0,0.228-0.06,0.431-0.18,0.612c-0.119,0.18-0.276,0.334-0.468,0.463
					c-0.192,0.129-0.407,0.226-0.647,0.295c-0.239,0.068-0.48,0.102-0.723,0.102c-0.746,0-1.38-0.295-1.903-0.883
					c-0.067-0.086-0.097-0.182-0.097-0.288c0-0.133,0.042-0.244,0.131-0.332c0.085-0.087,0.195-0.13,0.329-0.13
					c0.099,0,0.181,0.03,0.249,0.087c0.067,0.057,0.13,0.112,0.186,0.165c0.301,0.302,0.669,0.454,1.105,0.454
					c0.422,0,0.763-0.134,1.02-0.399c0.046-0.05,0.066-0.111,0.066-0.183c0-0.081-0.04-0.139-0.12-0.171L134.881,68.663z"/>
				<path fill="#221F1F" d="M145.897,70.086c0.129,0,0.24,0.047,0.332,0.139c0.092,0.091,0.137,0.203,0.137,0.331
					c0,0.13-0.045,0.243-0.137,0.334s-0.203,0.138-0.332,0.138h-4.104c-0.069,0-0.129-0.013-0.185-0.035
					c-0.058-0.025-0.107-0.057-0.149-0.101c-0.044-0.042-0.076-0.091-0.101-0.148c-0.023-0.057-0.035-0.118-0.035-0.187V64.4
					c0-0.066,0.012-0.127,0.035-0.185c0.024-0.058,0.057-0.108,0.101-0.15c0.042-0.043,0.092-0.076,0.149-0.101
					c0.056-0.024,0.115-0.036,0.185-0.036h4.104c0.129,0,0.24,0.047,0.332,0.138c0.092,0.093,0.137,0.203,0.137,0.333
					s-0.045,0.241-0.137,0.333s-0.203,0.139-0.332,0.139h-3.634v2.137h2.608c0.13,0,0.241,0.046,0.332,0.137
					c0.092,0.091,0.139,0.203,0.139,0.333c0,0.131-0.047,0.241-0.139,0.333c-0.091,0.091-0.202,0.138-0.332,0.138h-2.608v2.137
					H145.897z"/>
				<path fill="#221F1F" d="M149.21,66.06c0.587,0,1.107,0.183,1.556,0.545v-2.214c0-0.133,0.043-0.242,0.132-0.331
					c0.088-0.086,0.197-0.131,0.33-0.131c0.131,0,0.241,0.045,0.33,0.131c0.092,0.088,0.136,0.197,0.136,0.331v4.152
					c0,0.692-0.242,1.28-0.728,1.757c-0.49,0.485-1.075,0.728-1.756,0.728c-0.687,0-1.271-0.243-1.757-0.728
					c-0.486-0.486-0.729-1.071-0.729-1.757c0-0.686,0.242-1.271,0.729-1.756C147.939,66.301,148.524,66.06,149.21,66.06z
					 M150.766,68.543c0-0.211-0.041-0.413-0.122-0.601c-0.079-0.188-0.191-0.353-0.332-0.495c-0.142-0.142-0.304-0.255-0.494-0.338
					c-0.188-0.083-0.393-0.124-0.607-0.124c-0.219,0-0.423,0.041-0.614,0.124c-0.188,0.083-0.352,0.195-0.49,0.335
					s-0.25,0.305-0.331,0.495c-0.08,0.188-0.122,0.392-0.122,0.603c0,0.213,0.042,0.414,0.122,0.604
					c0.081,0.189,0.192,0.354,0.331,0.494c0.139,0.139,0.302,0.252,0.49,0.334c0.191,0.083,0.396,0.125,0.614,0.125
					c0.215,0,0.419-0.042,0.607-0.125c0.19-0.082,0.353-0.195,0.494-0.337c0.141-0.142,0.253-0.307,0.332-0.494
					C150.725,68.957,150.766,68.756,150.766,68.543z"/>
				<path fill="#221F1F" d="M156.566,71.028c-0.135,0-0.242-0.046-0.329-0.132c-0.085-0.089-0.129-0.197-0.132-0.326
					c-0.204,0.161-0.42,0.276-0.648,0.35c-0.229,0.074-0.476,0.109-0.74,0.109c-0.316,0-0.617-0.062-0.898-0.185
					c-0.28-0.123-0.524-0.289-0.735-0.5c-0.209-0.208-0.376-0.455-0.499-0.735c-0.121-0.282-0.184-0.58-0.184-0.896V66.52
					c0-0.128,0.045-0.235,0.135-0.325c0.092-0.09,0.201-0.136,0.331-0.136c0.128,0,0.235,0.046,0.326,0.136s0.136,0.197,0.136,0.325
					v2.192c0,0.192,0.036,0.372,0.106,0.541c0.075,0.168,0.175,0.315,0.3,0.442c0.124,0.125,0.271,0.225,0.44,0.296
					c0.168,0.074,0.349,0.11,0.542,0.11c0.188,0,0.366-0.036,0.535-0.11c0.17-0.071,0.318-0.172,0.445-0.299
					c0.127-0.128,0.226-0.273,0.299-0.442c0.072-0.167,0.109-0.346,0.109-0.538V66.52c0-0.128,0.044-0.235,0.135-0.325
					c0.09-0.09,0.201-0.136,0.33-0.136c0.127,0,0.236,0.046,0.327,0.136c0.089,0.09,0.136,0.197,0.136,0.325v4.046
					c0,0.127-0.047,0.236-0.136,0.326C156.806,70.981,156.696,71.028,156.566,71.028z"/>
				<path fill="#221F1F" d="M161.507,69.621c0.134,0,0.243,0.044,0.331,0.131c0.088,0.087,0.131,0.198,0.131,0.33
					c0,0.13-0.049,0.246-0.146,0.343c-0.458,0.403-0.999,0.604-1.619,0.604c-0.688,0-1.272-0.243-1.757-0.728
					c-0.485-0.486-0.728-1.071-0.728-1.757c0-0.686,0.242-1.271,0.728-1.756c0.484-0.486,1.069-0.727,1.757-0.727
					c0.624,0,1.164,0.2,1.619,0.603c0.106,0.096,0.16,0.21,0.16,0.352c0,0.132-0.044,0.243-0.131,0.332
					c-0.089,0.087-0.197,0.133-0.331,0.133c-0.113,0-0.214-0.037-0.303-0.107c-0.149-0.128-0.309-0.223-0.474-0.288
					s-0.347-0.098-0.541-0.098c-0.216,0-0.419,0.041-0.607,0.122c-0.19,0.082-0.355,0.193-0.498,0.333
					c-0.141,0.139-0.253,0.304-0.334,0.495c-0.082,0.189-0.123,0.391-0.123,0.606c0,0.217,0.041,0.418,0.123,0.608
					c0.081,0.188,0.193,0.355,0.334,0.495c0.143,0.14,0.308,0.25,0.498,0.332c0.188,0.081,0.392,0.123,0.607,0.123
					c0.194,0,0.376-0.033,0.541-0.097c0.165-0.063,0.322-0.158,0.47-0.285C161.297,69.656,161.396,69.625,161.507,69.621z"/>
				<path fill="#221F1F" d="M166.738,70.566v-0.088c-0.222,0.177-0.464,0.313-0.723,0.407c-0.26,0.095-0.54,0.143-0.835,0.143
					c-0.687,0-1.271-0.243-1.756-0.728c-0.484-0.486-0.728-1.071-0.728-1.757c0-0.686,0.243-1.271,0.728-1.756
					c0.484-0.486,1.069-0.727,1.756-0.727c0.681,0,1.266,0.241,1.757,0.727c0.485,0.485,0.728,1.071,0.728,1.756v2.023
					c0,0.127-0.045,0.236-0.134,0.326c-0.09,0.09-0.2,0.136-0.326,0.136c-0.131,0-0.24-0.046-0.33-0.136
					C166.783,70.802,166.738,70.693,166.738,70.566z M165.18,66.986c-0.22,0-0.423,0.041-0.612,0.124
					c-0.188,0.083-0.353,0.195-0.491,0.335c-0.14,0.14-0.25,0.305-0.331,0.495c-0.081,0.188-0.122,0.392-0.122,0.603
					c0,0.213,0.041,0.414,0.122,0.604c0.081,0.189,0.191,0.354,0.331,0.494c0.139,0.139,0.303,0.252,0.491,0.334
					c0.189,0.083,0.393,0.125,0.612,0.125c0.217,0,0.419-0.042,0.609-0.125c0.188-0.082,0.353-0.195,0.494-0.337
					c0.14-0.142,0.251-0.307,0.332-0.494c0.082-0.188,0.122-0.389,0.122-0.602c0-0.211-0.04-0.413-0.122-0.601
					c-0.081-0.188-0.192-0.353-0.332-0.495c-0.142-0.142-0.306-0.255-0.494-0.338C165.599,67.027,165.397,66.986,165.18,66.986z"/>
				<path fill="#221F1F" d="M172.155,69.621c0.132,0,0.243,0.044,0.329,0.131c0.09,0.087,0.132,0.198,0.132,0.33
					c0,0.13-0.05,0.246-0.146,0.343c-0.459,0.403-0.999,0.604-1.619,0.604c-0.687,0-1.271-0.243-1.757-0.728
					c-0.485-0.486-0.728-1.071-0.728-1.757c0-0.686,0.242-1.271,0.728-1.756c0.485-0.486,1.07-0.727,1.757-0.727
					c0.623,0,1.164,0.2,1.619,0.603c0.106,0.096,0.159,0.21,0.159,0.352c0,0.132-0.042,0.243-0.13,0.332
					c-0.089,0.087-0.198,0.133-0.331,0.133c-0.112,0-0.213-0.037-0.301-0.107c-0.151-0.128-0.311-0.223-0.477-0.288
					c-0.165-0.065-0.345-0.098-0.54-0.098c-0.216,0-0.419,0.041-0.608,0.122s-0.354,0.193-0.497,0.333
					c-0.142,0.139-0.255,0.304-0.334,0.495c-0.082,0.189-0.122,0.391-0.122,0.606c0,0.217,0.04,0.418,0.122,0.608
					c0.079,0.188,0.192,0.355,0.334,0.495c0.144,0.14,0.308,0.25,0.497,0.332c0.189,0.081,0.393,0.123,0.608,0.123
					c0.195,0,0.375-0.033,0.54-0.097c0.166-0.063,0.323-0.158,0.471-0.285C171.944,69.656,172.042,69.625,172.155,69.621z"/>
				<path fill="#221F1F" d="M174.599,65.175c0,0.151-0.053,0.28-0.16,0.388c-0.105,0.105-0.234,0.159-0.386,0.159
					c-0.15,0-0.279-0.053-0.386-0.159c-0.105-0.107-0.159-0.236-0.159-0.388c0-0.148,0.054-0.278,0.159-0.385
					c0.106-0.106,0.235-0.16,0.386-0.16c0.151,0,0.28,0.054,0.386,0.16C174.546,64.897,174.599,65.026,174.599,65.175z
					 M173.592,70.562v-4.037c0-0.129,0.045-0.24,0.134-0.33c0.092-0.09,0.201-0.136,0.327-0.136c0.128,0,0.234,0.046,0.327,0.136
					c0.089,0.09,0.137,0.2,0.138,0.33v4.037c-0.001,0.13-0.049,0.241-0.138,0.33c-0.093,0.09-0.199,0.136-0.327,0.136
					c-0.126,0-0.235-0.046-0.327-0.136C173.637,70.802,173.592,70.691,173.592,70.562z"/>
				<path fill="#221F1F" d="M180.441,68.543c0,0.692-0.241,1.28-0.728,1.757c-0.49,0.485-1.075,0.728-1.756,0.728
					c-0.688,0-1.273-0.243-1.756-0.728c-0.486-0.486-0.729-1.071-0.729-1.757c0-0.686,0.242-1.271,0.729-1.756
					c0.482-0.486,1.068-0.727,1.756-0.727c0.681,0,1.266,0.241,1.756,0.727c0.242,0.242,0.424,0.51,0.544,0.803
					C180.376,67.881,180.438,68.199,180.441,68.543z M177.958,66.986c-0.219,0-0.424,0.041-0.613,0.124
					c-0.188,0.083-0.353,0.195-0.492,0.335s-0.25,0.305-0.329,0.495c-0.083,0.188-0.122,0.392-0.122,0.603
					c0,0.213,0.039,0.414,0.122,0.604c0.079,0.189,0.189,0.354,0.329,0.494c0.14,0.139,0.305,0.252,0.492,0.334
					c0.189,0.083,0.395,0.125,0.613,0.125c0.214,0,0.418-0.042,0.607-0.125c0.188-0.082,0.354-0.195,0.493-0.337
					c0.142-0.142,0.252-0.307,0.333-0.494c0.083-0.188,0.124-0.389,0.124-0.602c0-0.211-0.041-0.413-0.124-0.601
					c-0.081-0.188-0.191-0.353-0.333-0.495c-0.14-0.142-0.305-0.255-0.493-0.338C178.375,67.027,178.171,66.986,177.958,66.986z"/>
				<path fill="#221F1F" d="M182.075,66.515c0.393-0.303,0.856-0.455,1.387-0.455c0.312,0,0.605,0.06,0.886,0.183
					c0.281,0.12,0.526,0.284,0.739,0.495c0.213,0.207,0.382,0.453,0.506,0.735c0.123,0.283,0.187,0.583,0.187,0.903v2.187
					c0,0.13-0.047,0.241-0.137,0.33c-0.09,0.09-0.198,0.136-0.325,0.136c-0.13,0-0.24-0.046-0.33-0.136
					c-0.09-0.089-0.137-0.2-0.137-0.33v-2.187c0-0.19-0.035-0.369-0.109-0.537c-0.074-0.17-0.174-0.316-0.3-0.442
					c-0.126-0.125-0.272-0.225-0.442-0.3c-0.168-0.074-0.346-0.11-0.537-0.11s-0.371,0.036-0.537,0.107
					c-0.168,0.073-0.315,0.173-0.442,0.301c-0.127,0.128-0.228,0.274-0.3,0.444c-0.072,0.168-0.107,0.347-0.107,0.537v2.187
					c0,0.13-0.045,0.241-0.137,0.33c-0.089,0.09-0.197,0.136-0.326,0.136s-0.24-0.046-0.329-0.136c-0.09-0.089-0.136-0.2-0.136-0.33
					v-4.037c0-0.128,0.046-0.236,0.136-0.329c0.089-0.09,0.2-0.136,0.329-0.136s0.237,0.046,0.326,0.136
					C182.03,66.289,182.075,66.396,182.075,66.515z"/>
				<path fill="#221F1F" d="M190.516,70.566v-0.088c-0.222,0.177-0.463,0.313-0.723,0.407c-0.261,0.095-0.538,0.143-0.833,0.143
					c-0.688,0-1.273-0.243-1.759-0.728c-0.484-0.486-0.728-1.071-0.728-1.757c0-0.686,0.243-1.271,0.728-1.756
					c0.485-0.486,1.07-0.727,1.759-0.727c0.679,0,1.265,0.241,1.756,0.727c0.484,0.485,0.727,1.071,0.727,1.756v2.023
					c0,0.127-0.044,0.236-0.135,0.326c-0.089,0.09-0.199,0.136-0.325,0.136c-0.132,0-0.241-0.046-0.331-0.136
					C190.562,70.802,190.516,70.693,190.516,70.566z M188.96,66.986c-0.221,0-0.426,0.041-0.613,0.124
					c-0.19,0.083-0.354,0.195-0.493,0.335c-0.138,0.14-0.248,0.305-0.33,0.495c-0.081,0.188-0.122,0.392-0.122,0.603
					c0,0.213,0.041,0.414,0.122,0.604c0.082,0.189,0.192,0.354,0.33,0.494c0.139,0.139,0.303,0.252,0.493,0.334
					c0.188,0.083,0.393,0.125,0.613,0.125c0.214,0,0.417-0.042,0.606-0.125c0.19-0.082,0.354-0.195,0.495-0.337
					c0.141-0.142,0.251-0.307,0.333-0.494c0.08-0.188,0.121-0.389,0.121-0.602c0-0.211-0.041-0.413-0.121-0.601
					c-0.082-0.188-0.192-0.353-0.333-0.495c-0.141-0.142-0.305-0.255-0.495-0.338C189.377,67.027,189.174,66.986,188.96,66.986z"/>
				<path fill="#221F1F" d="M193.408,65.175c0,0.151-0.053,0.28-0.159,0.388c-0.107,0.105-0.235,0.159-0.386,0.159
					s-0.279-0.053-0.386-0.159c-0.107-0.107-0.16-0.236-0.16-0.388c0-0.148,0.053-0.278,0.16-0.385
					c0.106-0.106,0.235-0.16,0.386-0.16s0.278,0.054,0.386,0.16C193.355,64.897,193.408,65.026,193.408,65.175z M192.402,70.562
					v-4.037c0-0.129,0.044-0.24,0.134-0.33s0.2-0.136,0.327-0.136s0.235,0.046,0.325,0.136c0.091,0.09,0.137,0.2,0.143,0.33v4.037
					c-0.006,0.13-0.052,0.241-0.143,0.33c-0.09,0.09-0.198,0.136-0.325,0.136s-0.237-0.046-0.327-0.136
					C192.446,70.802,192.402,70.691,192.402,70.562z"/>
				<path fill="#221F1F" d="M195.187,68.663c-0.277-0.107-0.473-0.214-0.584-0.329h0.004c-0.225-0.227-0.338-0.495-0.338-0.803
					c0-0.224,0.061-0.427,0.18-0.611c0.119-0.18,0.277-0.334,0.469-0.463c0.193-0.125,0.408-0.226,0.65-0.294
					c0.24-0.07,0.482-0.104,0.725-0.104c0.74,0,1.375,0.296,1.902,0.891c0.064,0.077,0.094,0.17,0.094,0.278
					c0,0.135-0.043,0.245-0.131,0.331c-0.086,0.089-0.197,0.132-0.33,0.132c-0.096,0-0.174-0.025-0.242-0.079
					c-0.066-0.053-0.129-0.111-0.193-0.174c-0.301-0.301-0.666-0.452-1.1-0.452c-0.424,0-0.766,0.13-1.02,0.391
					c-0.049,0.046-0.072,0.112-0.072,0.195c0,0.083,0.039,0.139,0.117,0.17l2.074,0.681c0.291,0.113,0.486,0.223,0.586,0.33h-0.004
					c0.225,0.227,0.336,0.495,0.336,0.803c0,0.228-0.059,0.431-0.178,0.612c-0.121,0.18-0.277,0.334-0.469,0.463
					s-0.408,0.226-0.648,0.295c-0.24,0.068-0.48,0.102-0.723,0.102c-0.746,0-1.379-0.295-1.902-0.883
					c-0.066-0.086-0.098-0.182-0.098-0.288c0-0.133,0.043-0.244,0.131-0.332c0.086-0.087,0.197-0.13,0.33-0.13
					c0.098,0,0.18,0.03,0.248,0.087c0.068,0.057,0.131,0.112,0.186,0.165c0.303,0.302,0.67,0.454,1.105,0.454
					c0.422,0,0.764-0.134,1.02-0.399c0.047-0.05,0.066-0.111,0.066-0.183c0-0.081-0.039-0.139-0.119-0.171L195.187,68.663z"/>
				<path fill="#221F1F" d="M205.427,69.631c0.133,0,0.242,0.043,0.33,0.131c0.086,0.086,0.129,0.197,0.129,0.331
					c0,0.129-0.043,0.24-0.131,0.332c-0.461,0.403-1,0.604-1.625,0.604c-0.686,0-1.271-0.243-1.758-0.728
					c-0.482-0.486-0.725-1.071-0.725-1.757c0-0.686,0.242-1.271,0.725-1.756c0.486-0.486,1.072-0.727,1.758-0.727
					c0.682,0,1.266,0.241,1.756,0.727c0.244,0.24,0.426,0.507,0.547,0.802c0.121,0.292,0.184,0.61,0.184,0.954
					c0,0.133-0.047,0.244-0.137,0.33c-0.09,0.087-0.199,0.132-0.33,0.132h-3.512c0.049,0.162,0.123,0.311,0.219,0.445
					c0.1,0.135,0.213,0.25,0.346,0.346c0.131,0.097,0.275,0.171,0.434,0.225c0.158,0.052,0.322,0.08,0.494,0.08
					c0.195,0,0.373-0.03,0.537-0.089c0.162-0.058,0.314-0.148,0.453-0.268C205.21,69.67,205.312,69.633,205.427,69.631z
					 M205.626,68.081c-0.051-0.161-0.125-0.31-0.225-0.443c-0.098-0.136-0.215-0.251-0.346-0.347
					c-0.133-0.096-0.277-0.171-0.436-0.224c-0.158-0.053-0.32-0.08-0.49-0.08c-0.168,0-0.332,0.027-0.492,0.08
					c-0.158,0.052-0.305,0.128-0.439,0.224c-0.133,0.096-0.248,0.211-0.346,0.347c-0.098,0.134-0.17,0.283-0.215,0.443H205.626z"/>
				<path fill="#221F1F" d="M210.888,67.079c-0.221-0.2-0.373-0.407-0.461-0.619c-0.086-0.211-0.131-0.436-0.131-0.67
					c0-0.292,0.055-0.553,0.164-0.789c0.111-0.234,0.27-0.445,0.484-0.627h-0.004c0.34-0.295,0.738-0.444,1.197-0.444
					c0.148,0,0.297,0.02,0.443,0.056c0.148,0.037,0.291,0.093,0.43,0.169c0.137,0.075,0.266,0.169,0.385,0.282
					c0.121,0.111,0.227,0.243,0.322,0.395c0.045,0.076,0.066,0.161,0.066,0.253c0,0.068-0.012,0.129-0.035,0.185
					c-0.023,0.057-0.059,0.107-0.1,0.15c-0.043,0.042-0.094,0.077-0.152,0.1c-0.057,0.024-0.119,0.036-0.184,0.036
					c-0.061,0-0.111-0.01-0.158-0.026c-0.045-0.018-0.088-0.044-0.123-0.077c-0.037-0.031-0.072-0.07-0.105-0.112
					c-0.035-0.042-0.072-0.092-0.109-0.147c-0.07-0.105-0.168-0.182-0.293-0.234c-0.121-0.053-0.254-0.078-0.395-0.078
					c-0.113,0-0.223,0.023-0.328,0.069c-0.107,0.045-0.203,0.108-0.285,0.188c-0.082,0.079-0.148,0.175-0.201,0.285
					c-0.053,0.108-0.078,0.227-0.078,0.354c0,0.228,0.063,0.407,0.188,0.539c0.127,0.131,0.342,0.241,0.65,0.33
					c0.521,0.148,0.93,0.352,1.225,0.612c0.297,0.261,0.496,0.516,0.604,0.768c0.105,0.252,0.16,0.515,0.16,0.793
					c0,0.692-0.256,1.254-0.768,1.686h0.004c-0.41,0.348-0.879,0.524-1.402,0.524c-0.174,0-0.35-0.021-0.523-0.066
					c-0.172-0.042-0.342-0.105-0.502-0.187c-0.162-0.083-0.313-0.187-0.453-0.311s-0.262-0.264-0.367-0.42
					c-0.061-0.081-0.092-0.175-0.092-0.285c0-0.065,0.012-0.126,0.035-0.184c0.025-0.058,0.057-0.108,0.102-0.15
					c0.041-0.045,0.092-0.076,0.146-0.101c0.057-0.023,0.119-0.034,0.188-0.034c0.174,0,0.305,0.071,0.395,0.217
					c0.123,0.193,0.279,0.336,0.467,0.435c0.184,0.097,0.387,0.145,0.602,0.145c0.17,0,0.328-0.033,0.477-0.101
					c0.15-0.065,0.281-0.154,0.391-0.266c0.111-0.113,0.201-0.245,0.264-0.398c0.066-0.151,0.098-0.314,0.098-0.487
					c0-0.162-0.029-0.315-0.09-0.458c-0.061-0.145-0.178-0.285-0.352-0.426c-0.172-0.139-0.445-0.267-0.824-0.378
					C211.431,67.445,211.106,67.281,210.888,67.079z"/>
				<path fill="#221F1F" d="M219.657,68.543c0,0.692-0.242,1.28-0.727,1.757c-0.49,0.485-1.076,0.728-1.756,0.728
					c-0.688,0-1.273-0.243-1.758-0.728c-0.484-0.486-0.729-1.071-0.729-1.757c0-0.686,0.244-1.271,0.729-1.756
					c0.484-0.486,1.07-0.727,1.758-0.727c0.68,0,1.266,0.241,1.756,0.727c0.242,0.242,0.424,0.51,0.543,0.803
					C219.593,67.881,219.655,68.199,219.657,68.543z M217.175,66.986c-0.219,0-0.424,0.041-0.613,0.124s-0.354,0.195-0.492,0.335
					s-0.25,0.305-0.33,0.495c-0.082,0.188-0.123,0.392-0.123,0.603c0,0.213,0.041,0.414,0.123,0.604
					c0.08,0.189,0.191,0.354,0.33,0.494c0.139,0.139,0.303,0.252,0.492,0.334c0.189,0.083,0.395,0.125,0.613,0.125
					c0.215,0,0.418-0.042,0.605-0.125c0.191-0.082,0.355-0.195,0.496-0.337c0.139-0.142,0.252-0.307,0.332-0.494
					c0.082-0.188,0.121-0.389,0.121-0.602c0-0.211-0.039-0.413-0.121-0.601c-0.08-0.188-0.193-0.353-0.332-0.495
					c-0.141-0.142-0.305-0.255-0.496-0.338C217.593,67.027,217.39,66.986,217.175,66.986z"/>
				<path fill="#221F1F" d="M224.147,69.621c0.133,0,0.244,0.044,0.328,0.131c0.09,0.087,0.133,0.198,0.133,0.33
					c0,0.13-0.049,0.246-0.146,0.343c-0.459,0.403-0.998,0.604-1.617,0.604c-0.688,0-1.273-0.243-1.758-0.728
					c-0.486-0.486-0.729-1.071-0.729-1.757c0-0.686,0.242-1.271,0.729-1.756c0.484-0.486,1.07-0.727,1.758-0.727
					c0.623,0,1.162,0.2,1.617,0.603c0.107,0.096,0.16,0.21,0.16,0.352c0,0.132-0.043,0.243-0.131,0.332
					c-0.088,0.087-0.197,0.133-0.332,0.133c-0.111,0-0.211-0.037-0.301-0.107c-0.15-0.128-0.309-0.223-0.475-0.288
					s-0.346-0.098-0.539-0.098c-0.219,0-0.42,0.041-0.609,0.122c-0.191,0.082-0.355,0.193-0.498,0.333
					c-0.143,0.139-0.254,0.304-0.334,0.495c-0.082,0.189-0.121,0.391-0.121,0.606c0,0.217,0.039,0.418,0.121,0.608
					c0.08,0.188,0.191,0.355,0.334,0.495c0.143,0.14,0.307,0.25,0.498,0.332c0.189,0.081,0.391,0.123,0.609,0.123
					c0.193,0,0.373-0.033,0.539-0.097c0.166-0.063,0.322-0.158,0.471-0.285C223.938,69.656,224.034,69.625,224.147,69.621z"/>
				<path fill="#221F1F" d="M226.591,65.175c0,0.151-0.053,0.28-0.158,0.388c-0.107,0.105-0.234,0.159-0.387,0.159
					c-0.15,0-0.279-0.053-0.387-0.159c-0.105-0.107-0.16-0.236-0.16-0.388c0-0.148,0.055-0.278,0.16-0.385
					c0.107-0.106,0.236-0.16,0.387-0.16c0.152,0,0.279,0.054,0.387,0.16C226.538,64.897,226.591,65.026,226.591,65.175z
					 M225.583,70.562v-4.037c0-0.129,0.047-0.24,0.137-0.33s0.199-0.136,0.326-0.136s0.234,0.046,0.326,0.136
					c0.09,0.09,0.137,0.2,0.139,0.33v4.037c-0.002,0.13-0.049,0.241-0.139,0.33c-0.092,0.09-0.199,0.136-0.326,0.136
					s-0.236-0.046-0.326-0.136C225.63,70.802,225.583,70.691,225.583,70.562z"/>
				<path fill="#221F1F" d="M231.507,70.566v-0.088c-0.223,0.177-0.463,0.313-0.723,0.407c-0.262,0.095-0.539,0.143-0.834,0.143
					c-0.686,0-1.271-0.243-1.758-0.728c-0.484-0.486-0.727-1.071-0.727-1.757c0-0.686,0.242-1.271,0.727-1.756
					c0.486-0.486,1.072-0.727,1.758-0.727c0.682,0,1.266,0.241,1.756,0.727c0.486,0.485,0.729,1.071,0.729,1.756v2.023
					c0,0.127-0.047,0.236-0.137,0.326c-0.09,0.09-0.199,0.136-0.324,0.136c-0.131,0-0.24-0.046-0.33-0.136
					C231.552,70.802,231.507,70.693,231.507,70.566z M229.95,66.986c-0.219,0-0.424,0.041-0.613,0.124
					c-0.188,0.083-0.352,0.195-0.492,0.335c-0.139,0.14-0.25,0.305-0.33,0.495c-0.082,0.188-0.123,0.392-0.123,0.603
					c0,0.213,0.041,0.414,0.123,0.604c0.08,0.189,0.191,0.354,0.33,0.494c0.141,0.139,0.305,0.252,0.492,0.334
					c0.189,0.083,0.395,0.125,0.613,0.125c0.215,0,0.416-0.042,0.607-0.125c0.188-0.082,0.355-0.195,0.494-0.337
					c0.141-0.142,0.25-0.307,0.332-0.494c0.082-0.188,0.123-0.389,0.123-0.602c0-0.211-0.041-0.413-0.123-0.601
					s-0.191-0.353-0.332-0.495c-0.139-0.142-0.307-0.255-0.494-0.338C230.366,67.027,230.165,66.986,229.95,66.986z"/>
				<path fill="#221F1F" d="M234.399,65.175c0,0.151-0.055,0.28-0.16,0.388c-0.105,0.105-0.234,0.159-0.385,0.159
					c-0.152,0-0.281-0.053-0.387-0.159c-0.105-0.107-0.16-0.236-0.16-0.388c0-0.148,0.055-0.278,0.16-0.385
					c0.105-0.106,0.234-0.16,0.387-0.16c0.15,0,0.279,0.054,0.385,0.16C234.345,64.897,234.399,65.026,234.399,65.175z
					 M233.392,70.562v-4.037c0-0.129,0.045-0.24,0.135-0.33c0.092-0.09,0.199-0.136,0.328-0.136c0.125,0,0.234,0.046,0.324,0.136
					s0.139,0.2,0.141,0.33v4.037c-0.002,0.13-0.051,0.241-0.141,0.33c-0.09,0.09-0.199,0.136-0.324,0.136
					c-0.129,0-0.236-0.046-0.328-0.136C233.437,70.802,233.392,70.691,233.392,70.562z"/>
				<path fill="#221F1F" d="M236.179,68.663c-0.279-0.107-0.473-0.214-0.588-0.329h0.006c-0.225-0.227-0.338-0.495-0.338-0.803
					c0-0.224,0.061-0.427,0.18-0.611c0.121-0.18,0.275-0.334,0.469-0.463c0.191-0.125,0.41-0.226,0.65-0.294
					c0.24-0.07,0.482-0.104,0.725-0.104c0.74,0,1.375,0.296,1.904,0.891c0.061,0.077,0.092,0.17,0.092,0.278
					c0,0.135-0.041,0.245-0.131,0.331c-0.086,0.089-0.197,0.132-0.33,0.132c-0.094,0-0.176-0.025-0.24-0.079
					c-0.068-0.053-0.131-0.111-0.195-0.174c-0.301-0.301-0.668-0.452-1.1-0.452c-0.424,0-0.766,0.13-1.02,0.391
					c-0.047,0.046-0.07,0.112-0.07,0.195c0,0.083,0.037,0.139,0.113,0.17l2.076,0.681c0.291,0.113,0.486,0.223,0.586,0.33h-0.004
					c0.225,0.227,0.338,0.495,0.338,0.803c0,0.228-0.061,0.431-0.18,0.612c-0.121,0.18-0.275,0.334-0.469,0.463
					s-0.406,0.226-0.646,0.295c-0.24,0.068-0.482,0.102-0.725,0.102c-0.744,0-1.379-0.295-1.902-0.883
					c-0.064-0.086-0.1-0.182-0.1-0.288c0-0.133,0.045-0.244,0.133-0.332c0.088-0.087,0.197-0.13,0.33-0.13
					c0.098,0,0.182,0.03,0.25,0.087c0.064,0.057,0.129,0.112,0.186,0.165c0.301,0.302,0.67,0.454,1.104,0.454
					c0.424,0,0.764-0.134,1.021-0.399c0.045-0.05,0.066-0.111,0.066-0.183c0-0.081-0.041-0.139-0.121-0.171L236.179,68.663z"/>
			</g>
			<g>
				<path fill="#221F1F" d="M92.406,32.674c-1.308-1.202-2.222-2.434-2.742-3.696c-0.522-1.264-0.782-2.602-0.782-4.016
					c0-1.731,0.327-3.3,0.98-4.705c0.652-1.404,1.616-2.653,2.889-3.748h-0.027c2.032-1.768,4.417-2.65,7.154-2.65
					c0.885,0,1.768,0.111,2.651,0.331c0.882,0.222,1.735,0.559,2.557,1.007c0.823,0.452,1.59,1.012,2.306,1.684
					c0.717,0.673,1.355,1.458,1.921,2.358c0.265,0.46,0.398,0.964,0.398,1.511c0,0.406-0.072,0.777-0.213,1.112
					c-0.141,0.336-0.34,0.631-0.596,0.888s-0.557,0.455-0.902,0.597c-0.344,0.14-0.71,0.21-1.099,0.21
					c-0.353,0-0.667-0.052-0.942-0.159c-0.273-0.104-0.52-0.254-0.74-0.448c-0.222-0.195-0.433-0.419-0.635-0.678
					c-0.205-0.254-0.421-0.551-0.651-0.888c-0.425-0.618-1.003-1.081-1.734-1.391c-0.733-0.309-1.524-0.464-2.372-0.464
					c-0.671,0-1.325,0.137-1.961,0.412c-0.636,0.272-1.2,0.649-1.696,1.126c-0.493,0.475-0.897,1.042-1.206,1.695
					c-0.309,0.654-0.463,1.362-0.463,2.12c0,1.361,0.375,2.434,1.127,3.221c0.75,0.786,2.043,1.444,3.881,1.975
					c3.11,0.881,5.549,2.102,7.314,3.657c1.767,1.555,2.97,3.082,3.604,4.583c0.635,1.501,0.954,3.082,0.954,4.744
					c0,4.133-1.528,7.49-4.584,10.07h0.026c-2.455,2.083-5.246,3.126-8.374,3.126c-1.044,0-2.085-0.127-3.128-0.384
					c-1.04-0.255-2.044-0.631-3.007-1.126c-0.965-0.495-1.865-1.114-2.703-1.855c-0.839-0.742-1.568-1.582-2.187-2.517
					c-0.369-0.477-0.557-1.042-0.557-1.696c0-0.388,0.072-0.754,0.213-1.1c0.142-0.344,0.34-0.644,0.596-0.901
					c0.256-0.255,0.551-0.455,0.888-0.597c0.335-0.139,0.707-0.21,1.113-0.21c1.042,0,1.83,0.434,2.358,1.298
					c0.742,1.148,1.669,2.015,2.782,2.596c1.114,0.584,2.315,0.876,3.604,0.876c1.008,0,1.955-0.198,2.85-0.596
					c0.892-0.399,1.669-0.933,2.33-1.604c0.663-0.672,1.188-1.462,1.575-2.372c0.391-0.911,0.584-1.878,0.584-2.903
					c0-0.971-0.18-1.886-0.542-2.742c-0.361-0.856-1.061-1.706-2.093-2.545c-1.034-0.838-2.673-1.593-4.917-2.264
					C95.648,34.855,93.712,33.876,92.406,32.674z"/>
				<path fill="#221F1F" d="M139.257,53.502v-0.53c-1.325,1.06-2.766,1.872-4.319,2.438c-1.555,0.565-3.216,0.848-4.982,0.848
					c-4.099,0-7.598-1.448-10.495-4.345c-2.896-2.898-4.345-6.396-4.345-10.495c0-4.097,1.448-7.596,4.345-10.493
					c2.897-2.898,6.396-4.346,10.495-4.346c4.061,0,7.561,1.448,10.493,4.346c2.898,2.896,4.345,6.396,4.345,10.493v12.084
					c0,0.76-0.268,1.409-0.807,1.947c-0.54,0.539-1.188,0.808-1.948,0.808c-0.777,0-1.436-0.269-1.975-0.808
					C139.526,54.911,139.257,54.262,139.257,53.502z M129.956,32.116c-1.308,0-2.526,0.249-3.656,0.744
					c-1.131,0.495-2.111,1.161-2.941,2c-0.832,0.838-1.488,1.824-1.976,2.955c-0.486,1.13-0.728,2.332-0.728,3.603
					c0,1.272,0.241,2.475,0.728,3.604c0.487,1.131,1.144,2.116,1.976,2.954c0.83,0.84,1.811,1.508,2.941,2.002
					c1.13,0.493,2.349,0.742,3.656,0.742c1.29,0,2.5-0.249,3.631-0.742c1.13-0.494,2.114-1.166,2.954-2.014
					c0.839-0.848,1.502-1.833,1.988-2.956c0.485-1.122,0.729-2.318,0.729-3.59c0-1.271-0.243-2.467-0.729-3.59
					c-0.486-1.122-1.149-2.107-1.988-2.954c-0.84-0.85-1.824-1.519-2.954-2.013C132.456,32.365,131.246,32.116,129.956,32.116z"/>
				<path fill="#221F1F" d="M154.575,29.863c2.632-2.19,5.732-3.285,9.301-3.285c4.061,0,7.56,1.448,10.493,4.346
					c1.448,1.431,2.535,3.025,3.26,4.782c0.725,1.759,1.086,3.662,1.086,5.711c0,4.133-1.448,7.631-4.346,10.495
					c-2.934,2.897-6.433,4.345-10.493,4.345c-4.1,0-7.597-1.448-10.495-4.345c-2.896-2.898-4.345-6.396-4.345-10.495V16.615
					c0-0.796,0.261-1.453,0.781-1.974c0.521-0.522,1.179-0.783,1.975-0.783c0.777,0,1.435,0.261,1.974,0.783
					c0.539,0.521,0.81,1.178,0.81,1.974V29.863z M163.875,50.719c1.288,0,2.499-0.249,3.629-0.742
					c1.131-0.494,2.116-1.166,2.956-2.014c0.837-0.848,1.502-1.833,1.988-2.956c0.483-1.122,0.729-2.318,0.729-3.59
					c0-1.271-0.245-2.467-0.729-3.59c-0.486-1.122-1.151-2.107-1.988-2.954c-0.84-0.85-1.825-1.519-2.956-2.013
					c-1.13-0.495-2.341-0.744-3.629-0.744c-1.308,0-2.527,0.249-3.658,0.744c-1.13,0.495-2.11,1.161-2.941,2
					c-0.83,0.838-1.487,1.824-1.973,2.955c-0.487,1.13-0.729,2.332-0.729,3.603c0,1.272,0.241,2.475,0.729,3.604
					c0.485,1.131,1.143,2.116,1.973,2.954c0.831,0.84,1.812,1.508,2.941,2.002C161.348,50.471,162.568,50.719,163.875,50.719z"/>
				<path fill="#221F1F" d="M205.532,47.911c0.795,0,1.451,0.261,1.975,0.781c0.52,0.521,0.781,1.18,0.781,1.975
					c0,0.777-0.266,1.438-0.795,1.988c-2.738,2.401-5.973,3.603-9.699,3.603c-4.097,0-7.596-1.448-10.495-4.345
					c-2.896-2.898-4.346-6.396-4.346-10.495c0-4.097,1.449-7.596,4.346-10.493c2.898-2.898,6.397-4.346,10.495-4.346
					c4.063,0,7.561,1.448,10.494,4.346c1.449,1.431,2.535,3.025,3.26,4.782c0.725,1.759,1.086,3.662,1.086,5.711
					c0,0.796-0.27,1.453-0.809,1.974s-1.197,0.783-1.975,0.783h-20.987c0.299,0.971,0.741,1.858,1.325,2.663
					s1.268,1.494,2.055,2.067c0.785,0.575,1.65,1.021,2.595,1.339c0.945,0.317,1.932,0.477,2.955,0.477
					c1.166,0,2.234-0.176,3.207-0.53c0.971-0.353,1.871-0.882,2.703-1.588C204.233,48.157,204.843,47.927,205.532,47.911z
					 M206.726,38.662c-0.303-0.971-0.746-1.859-1.34-2.664c-0.592-0.802-1.281-1.492-2.066-2.066
					c-0.787-0.574-1.654-1.019-2.598-1.338c-0.943-0.318-1.92-0.478-2.928-0.478c-1.006,0-1.988,0.16-2.941,0.478
					c-0.955,0.319-1.829,0.764-2.624,1.338s-1.483,1.265-2.067,2.066c-0.582,0.805-1.016,1.693-1.298,2.664H206.726z"/>
				<path fill="#221F1F" d="M222.306,29.334v0.529c1.326-1.059,2.766-1.87,4.32-2.438c1.555-0.564,3.215-0.847,4.98-0.847
					c0.777,0,1.611,0.053,2.504,0.158c0.893,0.107,1.715,0.296,2.467,0.57c0.75,0.274,1.375,0.648,1.865,1.126
					c0.496,0.477,0.744,1.095,0.744,1.855c0,0.387-0.076,0.75-0.227,1.086c-0.148,0.335-0.348,0.632-0.594,0.888
					c-0.248,0.256-0.539,0.455-0.875,0.597c-0.338,0.141-0.699,0.21-1.086,0.21c-0.336,0-0.727-0.096-1.166-0.291
					c-1.113-0.441-2.324-0.663-3.633-0.663c-1.289,0-2.498,0.244-3.629,0.729c-1.131,0.486-2.117,1.149-2.955,1.988
					c-0.84,0.84-1.502,1.824-1.988,2.954c-0.486,1.131-0.729,2.342-0.729,3.63v12.084c0,0.76-0.27,1.409-0.809,1.947
					c-0.539,0.539-1.188,0.808-1.947,0.808c-0.777,0-1.434-0.269-1.975-0.808c-0.537-0.539-0.809-1.188-0.809-1.947V29.334
					c0-0.758,0.271-1.408,0.809-1.949c0.541-0.538,1.197-0.807,1.975-0.807c0.76,0,1.408,0.269,1.947,0.807
					C222.036,27.926,222.306,28.576,222.306,29.334z"/>
			</g>
		</g>
		<g>
			<circle fill="#FFFFFF" cx="38.721" cy="18.336" r="4.562"/>
			<circle fill="#FFFFFF" cx="38.721" cy="59.4" r="4.562"/>
			<path fill="#FFFFFF" d="M72.879,38.813c0-18.896-15.317-34.214-34.215-34.214c-18.895,0-34.212,15.319-34.212,34.214
				c0,18.895,15.317,34.213,34.212,34.213c7.919,0,15.202-2.696,21-7.212c1.012-0.594,1.693-1.691,1.693-2.95
				c0-1.889-1.531-3.422-3.423-3.422c-0.933,0-1.778,0.376-2.395,0.981c-4.65,3.65-10.506,5.834-16.876,5.834
				c-15.116,0-27.37-12.255-27.37-27.371c0-15.118,12.254-27.372,27.37-27.372c15.119,0,27.373,12.254,27.373,27.372
				c0,0.003-0.001,0.007-0.001,0.011h0.031c0,3.78-3.064,6.845-6.846,6.845c-3.78,0-6.846-3.064-6.846-6.845H52.36
				c0-0.021,0.001-0.042,0.001-0.063c0-7.557-6.127-13.685-13.686-13.685s-13.685,6.128-13.685,13.685
				c0,7.559,6.126,13.685,13.685,13.685c4.088,0,7.753-1.793,10.261-4.633c2.507,2.84,6.172,4.633,10.258,4.633
				c7.538,0,13.65-6.092,13.685-13.623h-0.001C72.877,38.869,72.879,38.84,72.879,38.813z M38.704,45.742
				c-3.781,0-6.847-3.065-6.847-6.846c0-3.781,3.065-6.846,6.847-6.846s6.845,3.065,6.845,6.846v0.001H45.51
				c0.002,0.163,0.009,0.323,0.014,0.485C45.275,42.936,42.32,45.742,38.704,45.742z"/>
		</g>
	</g>
</g>
</svg>
